<svg width="100" height="20" viewBox="0 0 100 20" fill="none" xmlns="http://www.w3.org/2000/svg">
<path d="M1.49866 0.852853C1.06357 0.852853 0.725159 0.996997 0.435095 1.26126C0.145032 1.52553 0 1.86186 0 2.24625C0 2.65465 0.145032 2.99099 0.435095 3.25525C0.725159 3.51952 1.06357 3.63964 1.49866 3.63964C1.88541 3.63964 2.24799 3.51952 2.53806 3.25525C2.82812 2.99099 2.97315 2.65465 2.97315 2.24625C2.97315 1.86186 2.82812 1.52553 2.53806 1.26126C2.24799 0.996997 1.88541 0.852853 1.49866 0.852853ZM2.5864 6.11411C1.83707 5.96997 1.08774 5.96997 0.338408 6.11411V15.7237C1.08774 15.8919 1.83707 15.8919 2.5864 15.7237V6.11411Z" fill="#999999"/>
<path d="M11.0196 5.75375C9.61761 5.75375 8.45736 6.30631 7.56299 7.38739L7.41796 6.11411C6.74115 5.99399 6.0885 5.99399 5.43586 6.11411V19.6396C6.18519 19.8078 6.93452 19.8078 7.68385 19.6396V14.6186C8.55404 15.6036 9.66596 16.0841 11.0196 16.0841C12.4216 16.0841 13.5335 15.6036 14.4037 14.6186C15.2497 13.6336 15.6848 12.4084 15.6848 10.9189C15.6848 9.45345 15.2497 8.22823 14.4037 7.24324C13.5335 6.25826 12.4216 5.75375 11.0196 5.75375ZM10.4636 14.1381C9.40006 14.1381 8.48153 13.7297 7.70803 12.8649V8.97297C8.48153 8.13213 9.40006 7.6997 10.4636 7.6997C11.3338 7.6997 12.059 8.01201 12.6149 8.58859C13.1467 9.18919 13.4368 9.95796 13.4368 10.9189C13.4368 11.8799 13.1467 12.6727 12.6149 13.2492C12.059 13.8498 11.3338 14.1381 10.4636 14.1381Z" fill="#999999"/>
<path d="M22.5747 5.75375C21.0519 5.75375 19.795 6.25826 18.8039 7.24324C17.7887 8.25225 17.3052 9.47748 17.3052 10.9189C17.3052 12.3844 17.7887 13.6096 18.8039 14.5946C19.795 15.6036 21.0519 16.0841 22.5747 16.0841C24.0976 16.0841 25.3545 15.6036 26.3697 14.5946C27.3608 13.6096 27.8684 12.3844 27.8684 10.9189C27.8684 9.47748 27.3608 8.25225 26.3697 7.24324C25.3545 6.25826 24.0976 5.75375 22.5747 5.75375ZM22.5989 7.6997C23.4691 7.6997 24.1701 8.01201 24.7502 8.61261C25.3303 9.21321 25.6204 9.98198 25.6204 10.9189C25.6204 11.8799 25.3303 12.6486 24.7502 13.2492C24.1701 13.8498 23.4691 14.1381 22.5989 14.1381C21.7287 14.1381 21.0036 13.8498 20.4234 13.2492C19.8433 12.6486 19.5774 11.8799 19.5774 10.9189C19.5774 9.98198 19.8433 9.21321 20.4234 8.61261C21.0036 8.01201 21.7287 7.6997 22.5989 7.6997Z" fill="#999999"/>
<path d="M33.8438 10.006C33.7713 10.006 33.6746 9.95796 33.5537 9.90991C33.0219 9.76577 32.6594 9.62162 32.4418 9.52553C32.2243 9.42943 32.0309 9.30931 31.8375 9.11712C31.6441 8.94895 31.5474 8.73273 31.5474 8.49249C31.5474 8.10811 31.7166 7.81982 32.0551 7.57958C32.3935 7.36336 32.8286 7.24324 33.312 7.24324C34.2547 7.24324 35.3183 7.62763 36.5269 8.3964C36.6236 8.27628 36.6477 8.01201 36.6477 7.57958C36.6477 7.14715 36.5994 6.85886 36.5269 6.66667C36.1643 6.42643 35.6567 6.21021 35.0282 6.01802C34.3756 5.84985 33.7471 5.75375 33.1186 5.75375C32.0067 5.75375 31.0882 6.04204 30.363 6.57057C29.6379 7.0991 29.2994 7.84384 29.2994 8.78078C29.2994 9.5976 29.5653 10.2222 30.1213 10.6547C30.6531 11.0871 31.4749 11.4955 32.5385 11.8318L32.7319 11.9039C33.312 12.0961 33.6987 12.2162 33.9163 12.3123C34.5206 12.5766 34.8348 12.9369 34.8348 13.3694C34.8348 13.7778 34.6415 14.0901 34.303 14.2823C33.9405 14.4985 33.5054 14.5946 33.0219 14.5946C32.0067 14.5946 30.8706 14.2102 29.662 13.4414C29.5653 13.5856 29.517 13.8498 29.517 14.2823C29.517 14.7147 29.5653 15.003 29.662 15.1712C30.0004 15.4354 30.508 15.6517 31.1849 15.8198C31.8617 16.012 32.5143 16.0841 33.1428 16.0841C34.2305 16.0841 35.1491 15.8438 35.9226 15.3153C36.6961 14.7868 37.0828 14.042 37.0828 13.0811C37.0828 12.2883 36.7928 11.6637 36.261 11.2072C35.7292 10.7748 34.9073 10.3664 33.8438 10.006Z" fill="#999999"/>
<path d="M39.7967 16.0841C40.1834 16.0841 40.546 15.964 40.8361 15.6997C41.1261 15.4354 41.2712 15.0991 41.2712 14.6907C41.2712 14.3063 41.1261 13.97 40.8361 13.7057C40.546 13.4414 40.1834 13.2973 39.7967 13.2973C39.3616 13.2973 39.0232 13.4414 38.7331 13.7057C38.4431 13.97 38.298 14.3063 38.298 14.6907C38.298 15.0991 38.4431 15.4354 38.7331 15.6997C39.0232 15.964 39.3616 16.0841 39.7967 16.0841Z" fill="#999999"/>
<path d="M50.631 7.21922C49.7608 6.25826 48.6489 5.75375 47.2953 5.75375C45.8933 5.75375 44.7572 6.25826 43.9112 7.24324C43.041 8.22823 42.6301 9.45345 42.6301 10.9189C42.6301 12.4084 43.041 13.6336 43.9112 14.6186C44.7572 15.6036 45.8933 16.0841 47.2953 16.0841C48.7214 16.0841 49.8817 15.5556 50.7519 14.4504L50.9211 15.7237C51.5737 15.8679 52.2264 15.8679 52.879 15.7237V0.108108C52.1055 -0.0360359 51.3562 -0.0360359 50.631 0.108108V7.21922ZM50.631 12.8649C49.8575 13.7297 48.939 14.1381 47.8996 14.1381C46.9811 14.1381 46.2559 13.8498 45.7241 13.2492C45.1682 12.6727 44.9023 11.8799 44.9023 10.9189C44.9023 9.95796 45.1682 9.18919 45.7241 8.58859C46.2559 8.01201 46.9811 7.6997 47.8996 7.6997C48.939 7.6997 49.8575 8.13213 50.631 8.97297V12.8649Z" fill="#999999"/>
<path d="M56.8695 0.852853C56.4344 0.852853 56.096 0.996997 55.8059 1.26126C55.5158 1.52553 55.3708 1.86186 55.3708 2.24625C55.3708 2.65465 55.5158 2.99099 55.8059 3.25525C56.096 3.51952 56.4344 3.63964 56.8695 3.63964C57.2562 3.63964 57.6188 3.51952 57.9089 3.25525C58.1989 2.99099 58.344 2.65465 58.344 2.24625C58.344 1.86186 58.1989 1.52553 57.9089 1.26126C57.6188 0.996997 57.2562 0.852853 56.8695 0.852853ZM57.9572 6.11411C57.2079 5.96997 56.4585 5.96997 55.7092 6.11411V15.7237C56.4585 15.8919 57.2079 15.8919 57.9572 15.7237V6.11411Z" fill="#999999"/>
<path d="M65.0126 5.75375C63.6106 5.75375 62.4745 6.25826 61.6285 7.21922C60.7583 8.2042 60.3474 9.4054 60.3474 10.8468C60.3474 12.2883 60.7583 13.5135 61.6285 14.4745C62.4745 15.4595 63.6106 15.9399 65.0126 15.9399C66.3662 15.9399 67.4781 15.4595 68.3483 14.4745V15.5315C68.3483 16.3964 68.0583 17.045 67.5023 17.4775C66.9222 17.9339 66.1728 18.1501 65.2301 18.1501C64.1182 18.1501 63.0305 17.8138 61.9669 17.1411C61.8702 17.2853 61.8219 17.5736 61.8219 18.03C61.8219 18.5105 61.8702 18.8228 61.9669 18.991C62.8371 19.6637 64.0699 20 65.6894 20C67.2122 20 68.4208 19.5916 69.291 18.7507C70.1612 17.9339 70.5963 16.8048 70.5963 15.4114V6.11411C69.9437 5.96997 69.291 5.96997 68.6384 6.11411L68.4692 7.38739C67.599 6.30631 66.4387 5.75375 65.0126 5.75375ZM65.6169 7.6997C66.6563 7.6997 67.5748 8.13213 68.3483 8.97297V12.7207C67.6232 13.5856 66.7046 13.994 65.6169 13.994C64.7225 13.994 63.9974 13.7057 63.4414 13.1291C62.8855 12.5526 62.6196 11.7838 62.6196 10.8468C62.6196 9.93393 62.8855 9.16516 63.4414 8.58859C63.9974 8.01201 64.7225 7.6997 65.6169 7.6997Z" fill="#999999"/>
<path d="M74.5632 0.852853C74.1281 0.852853 73.7896 0.996997 73.4996 1.26126C73.2095 1.52553 73.0645 1.86186 73.0645 2.24625C73.0645 2.65465 73.2095 2.99099 73.4996 3.25525C73.7896 3.51952 74.1281 3.63964 74.5632 3.63964C74.9499 3.63964 75.3125 3.51952 75.6026 3.25525C75.8926 2.99099 76.0377 2.65465 76.0377 2.24625C76.0377 1.86186 75.8926 1.52553 75.6026 1.26126C75.3125 0.996997 74.9499 0.852853 74.5632 0.852853ZM75.6509 6.11411C74.9016 5.96997 74.1522 5.96997 73.4029 6.11411V15.7237C74.1522 15.8919 74.9016 15.8919 75.6509 15.7237V6.11411Z" fill="#999999"/>
<path d="M84.64 13.2252C83.8665 13.8739 83.1655 14.1862 82.5854 14.1862C81.9086 14.1862 81.5702 13.7538 81.5702 12.8649V8.01201H84.5192C84.6642 7.38739 84.6642 6.76276 84.5192 6.11411H81.5702V2.99099C80.7967 2.84685 80.0474 2.84685 79.3222 2.99099V6.11411H77.8235C77.6543 6.76276 77.6543 7.38739 77.8235 8.01201H79.3222V13.1772C79.3222 14.1381 79.5639 14.8589 80.0474 15.3393C80.5308 15.8438 81.1834 16.0841 82.0295 16.0841C83.1172 16.0841 83.9874 15.7718 84.64 15.1231C84.7125 14.955 84.7609 14.6186 84.7609 14.1381C84.7609 13.6577 84.7367 13.3694 84.64 13.2252Z" fill="#999999"/>
<path d="M90.8764 5.75375C89.3777 5.75375 88.1933 6.09009 87.2748 6.71471C87.1781 6.90691 87.1297 7.21922 87.1297 7.67568C87.1297 8.15616 87.1781 8.44444 87.2748 8.56456C88.3383 7.91592 89.4019 7.57958 90.4413 7.57958C92.1817 7.57958 93.0761 8.37237 93.0761 9.95796V10.991C92.2059 10.2703 91.1423 9.88589 89.8854 9.88589C88.8218 9.88589 87.9516 10.1742 87.299 10.7267C86.6221 11.3033 86.3079 12.048 86.3079 12.985C86.3079 13.9459 86.6221 14.6907 87.299 15.2432C87.9516 15.8198 88.7734 16.0841 89.7887 16.0841C90.4655 16.0841 91.0939 15.964 91.7224 15.6757C92.3267 15.3874 92.8343 15.0511 93.2211 14.6186L93.3661 15.7237C94.0188 15.8679 94.6714 15.8679 95.324 15.7237V10.1501C95.324 7.21922 93.8254 5.75375 90.8764 5.75375ZM90.4413 11.3033C90.9247 11.3033 91.4324 11.4234 91.94 11.6396C92.4476 11.8559 92.8343 12.0721 93.0761 12.2883V13.3694C92.8102 13.6096 92.4234 13.8498 91.94 14.0661C91.4324 14.2823 90.9248 14.3784 90.4171 14.3784C89.837 14.3784 89.3777 14.2342 89.0393 13.9459C88.7009 13.6577 88.5559 13.2733 88.5559 12.8408C88.5559 12.4084 88.7009 12.024 89.0393 11.7357C89.3777 11.4474 89.837 11.3033 90.4413 11.3033Z" fill="#999999"/>
<path d="M100 0.108108C99.2507 -0.0360359 98.5013 -0.0360359 97.752 0.108108V15.7237C98.5013 15.8919 99.2507 15.8919 100 15.7237V0.108108Z" fill="#999999"/>
</svg>
